<svg xmlns="http://www.w3.org/2000/svg" width="525" height="35" fill="none">
  <g clip-path="url(#a)">
    <path fill="#fff" d="M0 0h525v35H0z"/>
    <path fill="#171717" stroke="#171717" stroke-linecap="round" stroke-linejoin="round" stroke-width="2.1875" d="m13.5822 3.40271 7.1151 5.22161 8.3345-2.89936-2.7678 8.37974 5.3333 7.0306-8.8245-.0432-5.0379 7.2454-2.6864-8.4057-8.44785-2.5528 7.16375-5.1526-.1822-8.82369Z" opacity=".3"/>
    <path stroke="#171717" stroke-linecap="round" stroke-linejoin="round" stroke-width="2.1875" d="m13.5822 3.40271 7.1151 5.22161 8.3345-2.89936-2.7678 8.37974 5.3333 7.0306-8.8245-.0432-5.0379 7.2454-2.6864-8.4057-8.44785-2.5528 7.16375-5.1526-.1822-8.82369ZM3.88867 31.111l5.83334-5.8333M3.40265 23.8191l.97185-.9718M11.1807 31.5969l.9719-.9719"/>
    <path fill="#D4D4D4" fill-rule="evenodd" d="M62.7083 29.6531h-17.5V5.34753h17.5c2.1478 0 3.8889 1.74112 3.8889 3.88889V25.7642c0 2.1478-1.7411 3.8889-3.8889 3.8889Z" clip-rule="evenodd"/>
    <path stroke="#171717" stroke-linecap="round" stroke-linejoin="round" stroke-width="2.1875" d="M42.2919 29.653h20.4167c2.1478 0 3.8889-1.7411 3.8889-3.8889V9.2363c0-2.14777-1.7411-3.88889-3.8889-3.88889H42.2919c-2.1478 0-3.8889 1.74112-3.8889 3.88889v16.5278c0 2.1478 1.7411 3.8889 3.8889 3.8889ZM45.2083 5.34753V29.6531M55.9028 19.9308h5.8334M52.9863 15.0697h5.3473M52.9863 24.7921h3.8889M50.0693 10.2085h2.9166"/>
    <g clip-path="url(#b)">
      <path fill="#D4D4D4" d="M87.5001 3.40295c-7.7855 0-14.0972 6.31167-14.0972 14.09725 0 2.5647.6961 4.9622 1.8919 7.033.8361 1.5673-.103 5.2734-1.8919 7.0642 2.4305.1322 5.633-.9664 7.0642-1.8919.9508.5483 2.4577 1.2755 4.4313 1.6488.842.1595 1.7131.2431 2.6017.2431.638 0 .9874.1594 1.1038-.9837-.6941-.7821-1.1034-1.807-1.1034-2.9052 0-1.8849 1.2098-3.5548 2.9921-4.1516l2.2995-.7657.7661-2.2995c.5952-1.7834 2.2663-2.9915 4.1504-2.9915 1.1076 0 2.1698.4034 2.9544 1.1089 1.033-.1139.934-.8051.934-1.1089 0-7.78558-6.3113-14.09725-14.0969-14.09725Z"/>
      <path stroke="#171717" stroke-linecap="round" stroke-linejoin="round" stroke-width="2.00076" d="M101.597 17.5002c0-7.78558-6.3113-14.09725-14.0969-14.09725-7.7855 0-14.0972 6.31167-14.0972 14.09725 0 2.5647.6961 4.9622 1.8919 7.033.8361 1.5673-.103 5.2734-1.8919 7.0642 2.4305.1322 5.633-.9664 7.0642-1.8919.9508.5483 2.4577 1.2755 4.4313 1.6488.842.1595 1.7131.2431 2.6017.2431h.0263"/>
      <path fill="#171717" d="m104.003 26.3243-3.684-1.2268-1.2276-3.6837c-.1985-.5944-.7558-.9969-1.3832-.9969-.6275 0-1.185.4025-1.3833.9969l-1.2275 3.6837-3.6838 1.2268c-.5954.1993-.9969.7558-.9969 1.3842 0 .6285.4015 1.185.9969 1.3843l3.6838 1.2267 1.2275 3.6838c.1985.5944.7558.9969 1.3833.9969.6274 0 1.1849-.4025 1.3832-.9969l1.2276-3.6838 3.684-1.2267c.595-.1993.997-.7558.997-1.3843 0-.6284-.402-1.1849-.997-1.3842Z"/>
    </g>
    <path fill="#171717" stroke="#171717" stroke-linecap="round" stroke-linejoin="round" stroke-width="2.00076" d="M121.042 16.0419h-9.722c-1.611 0-2.917 1.3058-2.917 2.9166v9.7223c0 1.6108 1.306 2.9166 2.917 2.9166h9.722c1.611 0 2.917-1.3058 2.917-2.9166v-9.7223c0-1.6108-1.306-2.9166-2.917-2.9166Z"/>
    <path stroke="#171717" stroke-linecap="round" stroke-linejoin="round" stroke-width="2.00076" d="M127.361 9.23615h-8.75V8.2999l5.59-6.84153h.73V11.6667M131.736 1.45837V11.6667M138.542 1.45837l-6.806 7.01517M138.542 11.6668l-3.967-6.04351M121.042 15.0419c2.163 0 3.917 1.7536 3.917 3.917v9.7216c0 2.1634-1.754 3.917-3.917 3.917h-9.722c-2.163 0-3.917-1.7536-3.917-3.917v-9.7216c0-2.1634 1.754-3.917 3.917-3.917h9.722Z"/>
    <path fill="#D4D4D4" d="M121.042 16.0419h-9.722c-1.611 0-2.917 1.3058-2.917 2.9166v9.7223c0 1.6108 1.306 2.9166 2.917 2.9166h9.722c1.611 0 2.917-1.3058 2.917-2.9166v-9.7223c0-1.6108-1.306-2.9166-2.917-2.9166Z"/>
    <path fill="#171717" stroke="#171717" stroke-linecap="round" stroke-linejoin="round" stroke-width="2.00076" d="M119.486 31.5972c-.497-5.1749-4.806-9.2361-10.111-9.2361-.333 0-.647.0669-.972.0978v6.2216c0 1.6108 1.306 2.9167 2.917 2.9167h8.166ZM118.611 23.3336c1.074 0 1.945-.8706 1.945-1.9445 0-1.0738-.871-1.9444-1.945-1.9444s-1.944.8706-1.944 1.9444c0 1.0739.87 1.9445 1.944 1.9445Z"/>
    <path stroke="#171717" stroke-linecap="round" stroke-linejoin="round" stroke-width="2.00076" d="M108.403 11.1808c0-2.14865 1.74-3.88893 3.889-3.88893M132.709 27.7084c0 2.1486-1.741 3.8889-3.889 3.8889M132.709 17.0142v4.8611"/>
    <g stroke-width="2.00076" clip-path="url(#c)">
      <path stroke="#171717" stroke-linecap="round" stroke-linejoin="round" d="M142.43 16.042v2.9167M171.598 16.042v2.9167M148.264 7.29199V27.7087M154.098 11.1808v12.6389M159.93 5.34753V29.6531M165.764 11.1808v12.6389"/>
      <path fill="#171717" stroke="#fff" d="M166.979 2.28162c1.058 0 1.998.67799 2.333 1.67968v.00098l1.068 3.20801 3.21 1.06933.001.00098c1.002.33558 1.68 1.2736 1.68 2.333-.001 1.0593-.678 1.9975-1.68 2.333h-.001l-3.21 1.0684-1.068 3.209v.0009c-.335 1.0022-1.275 1.6807-2.333 1.6807-1.059-.0002-1.998-.679-2.333-1.6807v-.0009l-1.069-3.209-3.209-1.0684h-.001c-1.002-.3355-1.679-1.2737-1.679-2.333 0-1.0594.677-1.99742 1.679-2.333l.001-.00098 3.209-1.06933 1.069-3.20801c.335-1.00208 1.274-1.68047 2.333-1.68066Z"/>
    </g>
    <path fill="#D4D4D4" d="m193.696 4.63174 6.805-.9275c1.167-.15944 2.207.74861 2.207 1.92695v3.36583c0 .97222-.717 1.79468-1.682 1.92698l-9.012 1.2289V6.55869c0-.97222.717-1.79472 1.682-1.92695ZM186.666 31.5974c2.954 0 5.348-2.394 5.348-5.3472s-2.394-5.3472-5.348-5.3472c-2.953 0-5.347 2.394-5.347 5.3472s2.394 5.3472 5.347 5.3472Z"/>
    <path stroke="#171717" stroke-linecap="round" stroke-linejoin="round" stroke-width="2.00076" d="m193.696 4.63174 6.805-.9275c1.167-.15944 2.207.74861 2.207 1.92695v3.36583c0 .97222-.717 1.79468-1.682 1.92698l-9.012 1.2289V6.55869c0-.97222.717-1.79472 1.682-1.92695ZM192.014 12.1528v14.0973M186.666 31.5974c2.954 0 5.348-2.394 5.348-5.3472s-2.394-5.3472-5.348-5.3472c-2.953 0-5.347 2.394-5.347 5.3472s2.394 5.3472 5.347 5.3472Z"/>
    <path fill="#171717" d="m183.736 11.1652-1.839-.6125-.615-1.84144c-.198-.595-1.184-.595-1.382 0l-.615 1.84144-1.839.6125c-.297.0991-.5.3772-.5.6922 0 .315.203.593.5.6922l1.839.6125.615 1.8414c.099.2975.377.4978.69.4978.313 0 .593-.2023.69-.4978l.615-1.8414 1.839-.6125c.298-.0992.5-.3772.5-.6922 0-.315-.2-.5931-.498-.6922ZM207.391 21.3696l-2.456-.8186-.819-2.4559c-.266-.7933-1.579-.7933-1.845 0l-.819 2.4559-2.455.8186c-.397.1322-.665.5036-.665.9216 0 .4181.268.7895.665.9217l2.455.8186.819 2.4558c.132.3967.506.665.924.665.418 0 .789-.2683.923-.665l.819-2.4558 2.456-.8186c.396-.1322.665-.5036.665-.9217 0-.418-.271-.7894-.667-.9216ZM185.209 5.83354c.805 0 1.458-.65293 1.458-1.45834 0-.8054-.653-1.45833-1.458-1.45833-.806 0-1.459.65293-1.459 1.45833 0 .80541.653 1.45834 1.459 1.45834Z"/>
    <path fill="#D4D4D4" fill-rule="evenodd" d="M236.736 13.1252h-18.472c-2.148 0-3.889 1.7403-3.889 3.8889v8.75c0 2.1486 1.741 3.8889 3.889 3.8889h9.59c.284 0 .585-.0367.802-.2201.048-.04.078-.0787.07-.1093-.166-.6731-.254-1.3768-.254-2.1011 0-4.8326 3.918-8.75 8.75-8.75h3.403v-1.4584c0-2.1486-1.74-3.8889-3.889-3.8889Z" clip-rule="evenodd"/>
    <path stroke="#171717" stroke-linecap="round" stroke-linejoin="round" stroke-width="2.00076" d="M237.222 31.5975c2.416 0 4.375-1.9588 4.375-4.375 0-2.4161-1.959-4.375-4.375-4.375s-4.375 1.9589-4.375 4.375c0 2.4162 1.959 4.375 4.375 4.375ZM240.314 30.3145l3.228 3.2277M214.375 17.0141V9.2363c0-2.14861 1.741-3.88889 3.889-3.88889h3.794c1.18 0 2.294.5347 3.033 1.45443l1.173 1.46224h10.472c2.149 0 3.889 1.74032 3.889 3.88892v4.8611"/>
    <path stroke="#171717" stroke-linecap="round" stroke-linejoin="round" stroke-width="2.00076" d="M240.625 17.0141c0-2.1466-1.74-3.8889-3.889-3.8889h-18.472c-2.148 0-3.889 1.7423-3.889 3.8889v8.75c0 2.1467 1.741 3.8889 3.889 3.8889h9.045"/>
    <path fill="#D4D4D4" d="M268.333 23.3335h6.32V9.2363c0-2.14764-1.741-3.88889-3.889-3.88889h-16.042c2.417 0 4.375 1.95864 4.375 4.375 0 2.41639-1.958 4.37499-4.375 4.37499-2.416 0-4.375-1.9586-4.375-4.37499V25.7641c0 2.1476 1.741 3.8889 3.889 3.8889h14.097v-6.3195Z"/>
    <path stroke="#171717" stroke-linecap="round" stroke-linejoin="round" stroke-width="2.00076" d="M266.875 5.34753h3.889c2.149 0 3.889 1.74028 3.889 3.88889v2.91668M258.125 29.6531h-3.889c-2.149 0-3.889-1.7403-3.889-3.8889v-2.9167"/>
    <path fill="#171717" stroke="#171717" stroke-linecap="round" stroke-linejoin="round" stroke-width="2.00076" d="m275.114 22.4355-3.684-1.2268-1.228-3.6837c-.198-.5944-.755-.9969-1.383-.9969-.627 0-1.185.4025-1.383.9969l-1.228 3.6837-3.683 1.2268c-.596.1993-.997.7558-.997 1.3842 0 .6285.401 1.185.997 1.3843l3.683 1.2267 1.228 3.6838c.198.5944.756.9969 1.383.9969.628 0 1.185-.4025 1.383-.9969l1.228-3.6838 3.684-1.2267c.595-.1993.997-.7558.997-1.3843 0-.6284-.402-1.1849-.997-1.3842Z"/>
    <path stroke="#171717" stroke-linecap="round" stroke-linejoin="round" stroke-width="2.00076" d="M254.722 14.0974c2.416 0 4.375-1.9587 4.375-4.37499 0-2.41624-1.959-4.375-4.375-4.375s-4.375 1.95876-4.375 4.375c0 2.41629 1.959 4.37499 4.375 4.37499ZM257.814 12.8134l3.228 3.2285"/>
    <path fill="#D4D4D4" d="M298.092 3.59409c-.387-.12236-.8-.12236-1.185 0l-10.208 3.26607c-.805.25666-1.352 1.00557-1.352 1.8514V21.3883c0 5.8917 9.109 9.2328 11.555 10.0242.394.1282.802.1282 1.196 0 .851-.2753 7.049-3.3915 9.336-5.242l-.701-1.2256c-1.833 1.0276-3.796 1.3045-6.317 1.3045-4.564 0-8.263-3.6997-8.263-8.2638 0-4.5638 3.7-8.26384 8.263-8.26384 3.999 0 6.514 1.28374 8.059 3.26994 1.18 1.516 1.178-3.78594 1.178-4.26618v-.01396c0-.84389-.547-1.59279-1.352-1.8514l-10.209-3.26607Z"/>
    <path stroke="#171717" stroke-linecap="round" stroke-linejoin="round" stroke-width="2.1875" d="M309.653 12.1529V8.71124c0-.84583-.547-1.59444-1.352-1.85111l-10.208-3.26667c-.385-.1225-.799-.1225-1.186 0l-10.209 3.26667c-.805.25861-1.351 1.00528-1.351 1.85111V21.389c0 5.8917 9.108 9.2342 11.554 10.0236.395.1284.803.1284 1.198 0 1.676-.5425 6.482-2.2847 9.341-5.2228"/>
    <path stroke="#171717" stroke-linecap="round" stroke-linejoin="round" stroke-width="2.1875" d="M300.417 21.8751c2.147 0 3.888-1.7411 3.888-3.8889s-1.741-3.8889-3.888-3.8889c-2.148 0-3.889 1.7411-3.889 3.8889s1.741 3.8889 3.889 3.8889ZM304.306 17.9865h8.75M310.139 17.9865v2.9166"/>
    <path fill="#D4D4D4" d="M336.875 19.9307v1.9444c0 1.0733-.871 1.9445-1.945 1.9445h-4.861c-1.073 0-1.944-.8712-1.944-1.9445v-1.9444h-7.778v5.8333c0 2.1467 1.74 3.8889 3.889 3.8889h16.528c2.148 0 3.888-1.7422 3.888-3.8889v-5.8333h-7.777Z"/>
    <path stroke="#171717" stroke-linecap="round" stroke-linejoin="round" stroke-width="2.00076" d="M336.875 19.9307v1.9444c0 1.0733-.871 1.9445-1.945 1.9445h-4.861c-1.073 0-1.944-.8712-1.944-1.9445v-1.9444h-7.778v5.8333c0 2.1467 1.74 3.8889 3.889 3.8889h16.528c2.148 0 3.888-1.7422 3.888-3.8889v-5.8333h-7.777ZM329.878 5.34741h-5.642c-2.149 0-3.889 1.74222-3.889 3.88889v10.6944"/>
    <path fill="#171717" d="m347.058 6.87971-3.684-1.22675-1.227-3.68375c-.199-.59442-.756-.99692-1.384-.99692-.627 0-1.185.4025-1.383.99692l-1.227 3.68375-3.684 1.22675c-.596.1993-.997.7558-.997 1.38425 0 .62844.401 1.18494.997 1.38425l3.684 1.22679 1.227 3.6837c.199.5944.756.9969 1.383.9969.628 0 1.185-.4025 1.384-.9969l1.227-3.6837 3.684-1.22679c.595-.19931.997-.75581.997-1.38425 0-.62845-.402-1.18495-.997-1.38425Z"/>
    <path fill="#D4D4D4" d="M367.5 12.6392c6.712 0 12.153-1.9581 12.153-4.37504 0-2.41694-5.441-4.375-12.153-4.375-6.711 0-12.152 1.95806-12.152 4.375 0 2.41694 5.441 4.37504 12.152 4.37504Z"/>
    <path stroke="#171717" stroke-linecap="round" stroke-linejoin="round" stroke-width="2.00076" d="M367.5 12.6392c6.712 0 12.153-1.9581 12.153-4.37504 0-2.41694-5.441-4.375-12.153-4.375-6.711 0-12.152 1.95806-12.152 4.375 0 2.41694 5.441 4.37504 12.152 4.37504ZM379.653 16.625V8.26404"/>
    <path stroke="#171717" stroke-linecap="round" stroke-linejoin="round" stroke-width="2.00076" d="M355.348 8.26404V26.7363c0 2.3899 5.319 4.331 11.927 4.3742"/>
    <path stroke="#171717" stroke-linecap="round" stroke-linejoin="round" stroke-width="2.00076" d="M355.348 17.5c0 2.3602 5.188 4.2828 11.681 4.3717M376.25 30.625c2.416 0 4.375-1.9581 4.375-4.375s-1.959-4.375-4.375-4.375-4.375 1.9581-4.375 4.375 1.959 4.375 4.375 4.375ZM379.342 29.3419l3.228 3.2278M402.5 5.34753V29.6531M412.708 5.34753h-20.416"/>
    <path fill="#171717" d="m393.736 13.1622-1.839-.6125-.615-1.8414c-.198-.595-1.184-.595-1.382 0l-.615 1.8414-1.839.6125c-.297.0992-.5.3772-.5.6922 0 .315.203.5931.5.6923l1.839.6125.615 1.8414c.099.2975.377.4977.69.4977.313 0 .593-.2022.69-.4977l.615-1.8414 1.839-.6125c.298-.0992.5-.3773.5-.6923s-.2-.593-.498-.6922ZM417.391 19.4252l-2.456-.8186-.819-2.4558c-.266-.7933-1.579-.7933-1.845 0l-.819 2.4558-2.455.8186c-.397.1323-.665.5036-.665.9217 0 .4181.268.7894.665.9217l2.455.8186.819 2.4558c.132.3967.506.665.924.665.418 0 .789-.2683.923-.665l.819-2.4558 2.456-.8186c.396-.1323.665-.5036.665-.9217 0-.4181-.271-.7894-.667-.9217ZM395.209 25.2779c.805 0 1.458-.653 1.458-1.4584 0-.8053-.653-1.4583-1.458-1.4583-.806 0-1.459.653-1.459 1.4583 0 .8054.653 1.4584 1.459 1.4584Z"/>
    <path fill="#D4D4D4" d="m439.482 17.0534-11.754 11.6475h19.545c2.415 0 4.372-1.9573 4.372-4.3719l-7.377-7.2805c-1.327-1.3096-3.461-1.3074-4.786.0049Z"/>
    <path stroke="#171717" stroke-linecap="round" stroke-linejoin="round" stroke-width="2.00076" d="m427.777 28.681 11.348-11.3478c1.519-1.5186 3.98-1.5186 5.499 0l6.973 6.9728"/>
    <path stroke="#171717" stroke-linecap="round" stroke-linejoin="round" stroke-width="2.00076" d="M451.597 17.4752v7.3167c0 2.1486-1.741 3.8889-3.889 3.8889h-20.417c-2.148 0-3.889-1.7403-3.889-3.8889V10.2086c0-2.14862 1.741-3.8889 3.889-3.8889h8.832"/>
    <path fill="#171717" d="M431.18 16.5281c1.342 0 2.431-1.0889 2.431-2.4306 0-1.3416-1.089-2.4305-2.431-2.4305-1.341 0-2.43 1.0889-2.43 2.4305 0 1.3417 1.089 2.4306 2.43 2.4306ZM454.002 5.90764l-3.683-1.22667-1.228-3.683819c-.199-.594417-.756-.99690686-1.383-.99690686-.628 0-1.185.40248986-1.384.99690686l-1.227 3.683819-3.684 1.22667c-.595.19931-.997.75583-.997 1.38427 0 .62845.402 1.18496.997 1.38427l3.684 1.22667 1.227 3.68385c.199.5944.756.9969 1.384.9969.627 0 1.185-.4025 1.383-.9969l1.228-3.68385 3.683-1.22667c.596-.19931.997-.75582.997-1.38427 0-.62844-.401-1.18496-.997-1.38427Z"/>
    <path fill="#D4D4D4" d="M480.764 5.34729h-4.862c-1.074 0-1.944.87057-1.944 1.94444v4.86107c0 1.0739.87 1.9445 1.944 1.9445h4.862c1.073 0 1.944-.8706 1.944-1.9445V7.29173c0-1.07387-.871-1.94444-1.944-1.94444ZM480.764 20.9028h-4.862c-1.074 0-1.944.8706-1.944 1.9445v4.8611c0 1.0739.87 1.9444 1.944 1.9444h4.862c1.073 0 1.944-.8705 1.944-1.9444v-4.8611c0-1.0739-.871-1.9445-1.944-1.9445Z"/>
    <path stroke="#171717" stroke-linecap="round" stroke-linejoin="round" stroke-width="2.1875" d="M480.764 5.34729h-4.862c-1.074 0-1.944.87057-1.944 1.94444v4.86107c0 1.0739.87 1.9445 1.944 1.9445h4.862c1.073 0 1.944-.8706 1.944-1.9445V7.29173c0-1.07387-.871-1.94444-1.944-1.94444ZM480.764 20.9028h-4.862c-1.074 0-1.944.8706-1.944 1.9445v4.8611c0 1.0739.87 1.9444 1.944 1.9444h4.862c1.073 0 1.944-.8705 1.944-1.9444v-4.8611c0-1.0739-.871-1.9445-1.944-1.9445ZM468.125 10.2084h-2.917c-1.61 0-2.916-1.30668-2.916-2.91668V3.40283"/>
    <path stroke="#171717" stroke-linecap="round" stroke-linejoin="round" stroke-width="2.1875" d="M468.125 25.7639h-2.917c-1.61 0-2.916-1.3067-2.916-2.9167V6.80554"/>
    <path fill="#171717" fill-rule="evenodd" d="M509.159 31.5006c-.672.0992-.96.0967-1.659.0967-7.786 0-14.097-6.3117-14.097-14.0972 0-7.7856 6.311-14.09727 14.097-14.09727s14.097 6.31167 14.097 14.09727c0 .7.003.9806-.095 1.6533-.265.1309-.424.2096-.615.1216-1.115-.5149-2.356-.8027-3.665-.8027-4.832 0-8.75 3.918-8.75 8.75 0 1.3407.302 2.6114.841 3.7469.077.1622-.063.4165-.154.5314Z" clip-rule="evenodd" opacity=".3"/>
    <path stroke="#171717" stroke-linecap="round" stroke-linejoin="round" stroke-width="2.1875" d="M507.996 31.5889c-.165.0057-.33.0084-.496.0084-7.785 0-14.097-6.3117-14.097-14.0972 0-7.7856 6.312-14.09727 14.097-14.09727 7.786 0 14.097 6.31167 14.097 14.09727 0 .1658-.002.3311-.008.4954"/>
    <path stroke="#171717" stroke-linecap="round" stroke-linejoin="round" stroke-width="2.1875" d="M521.597 17.5003c0-3.2219-6.311-5.8333-14.097-5.8333s-14.097 2.6114-14.097 5.8333c0 3.222 6.311 5.8334 14.097 5.8334.095 0 .189-.0004.284-.0012"/>
    <path stroke="#171717" stroke-linecap="round" stroke-linejoin="round" stroke-width="2.1875" d="M513.332 17.7839c.001-.0943.002-.1888.002-.2837 0-7.78558-2.612-14.09725-5.834-14.09725-3.222 0-5.833 6.31167-5.833 14.09725 0 7.7855 2.611 14.0972 5.833 14.0972M517.222 31.5975c2.417 0 4.375-1.958 4.375-4.375 0-2.4169-1.958-4.375-4.375-4.375-2.416 0-4.375 1.9581-4.375 4.375 0 2.417 1.959 4.375 4.375 4.375ZM520.314 30.3141l3.228 3.2278"/>
  </g>
  <defs>
    <clipPath id="a">
      <path fill="#fff" d="M0 0h525v35H0z"/>
    </clipPath>
    <clipPath id="b">
      <path fill="#fff" d="M70 0h35v35H70z"/>
    </clipPath>
    <clipPath id="c">
      <path fill="#fff" d="M140 0h35v35h-35z"/>
    </clipPath>
  </defs>
</svg>